<svg width="270" height="309" viewBox="0 0 270 309" fill="none" xmlns="http://www.w3.org/2000/svg">
<g clip-path="url(#clip0_96_87)">
<path d="M129.571 289.88L129.227 282.127C129.191 282.108 129.155 282.089 129.119 282.071C125.432 280.132 121.206 283.641 122.384 287.643C123.492 291.408 124.237 295.468 126.265 298.763C127.463 300.678 129.076 302.297 130.984 303.502C132.892 304.707 135.046 305.466 137.287 305.723L141.972 308.597C142.614 305.006 142.473 301.319 141.556 297.788C140.64 294.258 138.97 290.968 136.663 288.147C135.353 286.577 133.851 285.178 132.192 283.984C131.07 286.948 129.571 289.88 129.571 289.88Z" fill="#F2F2F2"/>
<path d="M87.6301 211.206C78.6113 201.887 65.5417 196.542 51.7726 196.542L51.2415 196.543C42.1722 196.547 33.2646 194.136 25.43 189.559L24.6147 189.083L25.2713 188.405C28.8262 184.72 31.7946 180.509 34.0724 175.92C32.4546 177.431 30.5252 178.568 28.4205 179.249C26.3158 179.93 24.0874 180.139 21.8931 179.862C19.5763 179.585 17.3522 178.787 15.3875 177.526C13.4228 176.265 11.7686 174.575 10.5489 172.582C5.73651 164.758 0 153.657 0 145.2C0.00749131 138.051 1.50127 130.983 4.38611 124.445C7.27096 117.907 11.4836 112.043 16.7555 107.227C20.0931 104.212 22.7589 100.525 24.5793 96.4083C26.3996 92.2914 27.3336 87.8363 27.3203 83.3334L27.3176 82.6926C27.3167 76.7642 28.0398 70.8581 29.4706 65.1057L29.6159 64.5248L30.2123 64.5457C34.0588 64.6769 37.9072 64.3538 41.6782 63.5832C38.141 63.1485 34.6807 62.2263 31.3953 60.8428L30.7536 60.5827L30.9714 59.9239C45.9828 50.611 79.868 55.4337 99.536 10.3455C115.484 -26.2149 171.754 42.8002 171.754 82.6926C171.754 86.7631 167.734 92.1423 170.743 94.8327C203.279 123.916 180.83 142.592 173.752 161.384C172.073 165.843 175.714 170.738 175.714 175.562C175.714 176.38 175.693 177.225 175.652 178.073L175.589 179.376L174.504 178.653C172.358 177.244 170.369 175.609 168.571 173.776C170.436 178.078 171.316 182.745 171.144 187.433C170.972 192.121 169.753 196.71 167.577 200.863C164.168 207.311 160.869 211.928 157.773 214.583C147.856 223.087 135.071 227.473 122.033 226.846C108.995 226.218 96.6883 220.624 87.6301 211.206Z" fill="#E6E6E6"/>
<path d="M142.101 308.214C142.323 308.214 142.537 308.134 142.704 307.988C142.872 307.842 142.981 307.641 143.012 307.421C143.051 307.145 146.886 279.433 143.442 242.602C140.261 208.588 130.047 159.596 99.4485 119.36C99.3752 119.263 99.2836 119.182 99.179 119.121C99.0744 119.059 98.9587 119.02 98.8387 119.003C98.7187 118.987 98.5966 118.994 98.4795 119.025C98.3624 119.056 98.2526 119.11 98.1562 119.184C98.0599 119.257 97.9789 119.349 97.9181 119.454C97.8572 119.559 97.8176 119.675 97.8014 119.795C97.7853 119.915 97.793 120.038 97.824 120.155C97.8551 120.272 97.909 120.382 97.9825 120.479C128.317 160.368 138.449 209.001 141.607 242.775C145.031 279.391 141.226 306.887 141.188 307.161C141.169 307.292 141.179 307.425 141.216 307.552C141.254 307.679 141.318 307.796 141.405 307.896C141.491 307.996 141.598 308.076 141.718 308.131C141.838 308.186 141.969 308.214 142.101 308.214Z" fill="#3F3D56"/>
<path d="M117.131 176.115C117.326 176.115 117.515 176.054 117.673 175.939C117.831 175.824 117.948 175.663 118.008 175.477C118.068 175.292 118.068 175.092 118.008 174.907C117.948 174.721 117.831 174.559 117.674 174.445C117.563 174.364 106.369 166.282 89.6341 160.143C74.1643 154.468 50.64 149.323 26.4222 157.046C26.3067 157.083 26.1996 157.142 26.1069 157.22C26.0142 157.298 25.9379 157.394 25.8821 157.502C25.8264 157.61 25.7924 157.727 25.7821 157.848C25.7719 157.969 25.7855 158.091 25.8222 158.207C25.8589 158.322 25.9181 158.429 25.9962 158.522C26.0744 158.615 26.17 158.691 26.2776 158.747C26.3853 158.803 26.5028 158.837 26.6235 158.847C26.7442 158.857 26.8657 158.843 26.9811 158.806C50.7027 151.242 73.8005 156.301 89.0004 161.877C105.496 167.929 116.481 175.859 116.59 175.939C116.747 176.053 116.937 176.115 117.131 176.115Z" fill="#3F3D56"/>
<path d="M159.308 70.8602C159.322 70.6656 159.274 70.4716 159.172 70.3059C159.069 70.1402 158.917 70.0113 158.736 69.9378C158.556 69.8642 158.357 69.8498 158.168 69.8965C157.979 69.9432 157.81 70.0486 157.684 70.1977C157.596 70.3029 148.745 80.9078 141.429 97.1898C134.666 112.241 127.85 135.38 133.794 160.139C133.851 160.377 134 160.583 134.209 160.711C134.417 160.839 134.668 160.878 134.905 160.821C135.143 160.764 135.348 160.614 135.476 160.406C135.603 160.197 135.643 159.946 135.586 159.708C129.764 135.456 136.464 112.737 143.109 97.948C150.321 81.8983 159.006 71.4914 159.093 71.3881C159.219 71.2394 159.294 71.0545 159.308 70.8602Z" fill="#3F3D56"/>
<path d="M158.061 118.472C158.838 124.757 163.185 129.94 169.506 129.94C172.541 129.94 175.453 128.731 177.599 126.581C179.745 124.43 180.951 121.513 180.951 118.472C180.951 112.138 175.8 107.589 169.506 107.004C162.828 106.382 157.062 110.402 158.061 118.472Z" fill="#2F2E41"/>
<path d="M174.807 303.163L179.165 303.163L181.239 286.318L174.806 286.318L174.807 303.163Z" fill="#FFB6B6"/>
<path d="M174.654 307.719L188.057 307.718V307.548C188.057 306.162 187.507 304.833 186.529 303.852C185.55 302.872 184.223 302.321 182.84 302.321H182.84L180.391 300.46L175.824 302.322L174.654 302.322L174.654 307.719Z" fill="#2F2E41"/>
<path d="M157.639 303.163L161.998 303.163L164.071 286.318L157.638 286.318L157.639 303.163Z" fill="#FFB6B6"/>
<path d="M157.486 307.719L170.889 307.718V307.548C170.889 306.162 170.339 304.833 169.361 303.852C168.382 302.872 167.055 302.321 165.672 302.321H165.672L163.223 300.46L158.656 302.322L157.486 302.322L157.486 307.719Z" fill="#2F2E41"/>
<path d="M189.806 197.662L192.887 208.248L189.257 253.081C189.257 253.081 191.126 255.884 189.806 255.884C188.485 255.884 186.792 256.505 187.858 258.179C188.925 259.853 185.279 265.863 185.279 265.863L180.121 297.786L173.549 297.689C173.549 297.689 170.208 295.824 172.083 293.938C173.958 292.052 175.279 292.052 173.518 290.288C171.757 288.523 171.757 289.055 171.757 287.686C171.757 286.318 169.993 269.595 174.177 263.181L172.916 237.027L169.947 262.681L163.834 296.904L157.503 296.851C157.503 296.851 154.579 294.027 154.584 291.937C154.589 289.847 156.391 289.673 155.05 288.436C153.709 287.2 153.709 268.206 157.671 257.648C157.671 257.648 159.912 251.749 157.666 249.728C155.42 247.707 157.663 245.394 157.663 245.394C157.663 245.394 161.221 244.105 157.66 240.392C154.099 236.68 157.64 210.422 157.64 210.422C157.64 210.422 153.748 199.822 157.69 195.655C161.633 191.487 189.806 197.662 189.806 197.662Z" fill="#2F2E41"/>
<path d="M134.924 215.9L140.421 202.588L144.753 204.999L142.137 218.541C142.399 219.399 142.417 220.313 142.189 221.181C141.961 222.048 141.496 222.835 140.846 223.452C140.196 224.07 139.387 224.493 138.51 224.675C137.633 224.857 136.723 224.79 135.882 224.482C135.041 224.174 134.303 223.637 133.749 222.932C133.196 222.226 132.85 221.38 132.751 220.489C132.651 219.597 132.802 218.695 133.185 217.885C133.569 217.074 134.171 216.387 134.924 215.9Z" fill="#FFB6B6"/>
<path d="M227.179 110.628L218.813 122.347L215.14 119.015L220.75 106.419C220.689 105.523 220.878 104.629 221.296 103.836C221.715 103.042 222.346 102.382 223.118 101.928C223.891 101.475 224.774 101.246 225.669 101.268C226.565 101.289 227.436 101.561 228.185 102.052C228.935 102.543 229.533 103.233 229.912 104.046C230.292 104.859 230.437 105.762 230.333 106.653C230.228 107.544 229.877 108.388 229.32 109.09C228.763 109.793 228.021 110.325 227.179 110.628Z" fill="#FFB6B6"/>
<path d="M190.636 198.747C196.062 207.18 168.788 217.881 158.323 213.585C156.49 212.833 150.187 210.348 154.495 206.903C158.804 203.458 153.996 202.973 153.882 200.73C153.806 199.231 154.965 195.942 153.756 196.083C152.547 196.224 151.133 194.151 153.765 193.259C156.398 192.366 153.793 191.553 153.816 190.706C154.068 181.463 161.146 166.761 161.146 166.761L148.393 199.426C148.393 199.426 148.487 205.077 146.86 203.35C145.234 201.623 145.352 207.212 145.352 207.212C145.352 207.212 142.934 208.903 144.325 209.845C145.715 210.786 142.828 213.679 142.828 213.679L136.09 213.197C136.09 213.197 136.195 208.182 137.346 207.072C138.496 205.963 137.931 204.218 137.931 204.218C137.931 204.218 140.926 201.561 138.918 199.404C136.335 196.63 145.752 149.77 149.002 150.234C149.461 147.993 150.53 145.924 152.09 144.254C153.65 142.584 155.64 141.379 157.841 140.772L165.119 138.764L166.411 133.627H176.658L178.443 137.003L186.234 140.525C187.701 138.451 188.798 136.265 194.807 135.556C194.807 135.556 210.999 120.795 210.208 119.642C209.418 118.489 211.928 115.791 211.928 115.791C211.928 115.791 214.071 115.088 212.862 114.713C211.652 114.337 213.938 113.47 213.938 113.47C213.938 113.47 216.056 112.912 215.057 112.178C214.058 111.444 218.39 110.962 218.39 110.962L224.01 115.556L222.874 117.486C222.874 117.486 223.567 120.114 222.663 119.155C221.759 118.195 221.589 120.979 221.589 120.979C221.589 120.979 221.127 124.028 218.39 124.947C215.653 125.865 213.577 134.591 213.577 134.591C207.122 143.002 199.503 149.562 190.475 153.881C193.994 157.928 190.636 198.747 190.636 198.747Z" fill="#00BFA6"/>
<path d="M170.771 130.62C176.377 130.62 180.92 126.068 180.92 120.451C180.92 114.835 176.377 110.282 170.771 110.282C165.166 110.282 160.622 114.835 160.622 120.451C160.622 126.068 165.166 130.62 170.771 130.62Z" fill="#FFB6B6"/>
<path d="M160.262 121.559C160.583 123.769 162.463 126.852 162.023 126.852C161.582 126.852 158.453 117.742 161.582 117.148C163.853 116.717 164.36 117.095 166.482 116.174L166.183 116.456C167.587 117.479 169.541 116.848 171.144 116.182C172.75 115.521 174.7 114.89 176.109 115.909C176.994 116.548 177.368 117.66 177.918 118.604C178.469 119.552 179.485 120.448 180.533 120.156C181.374 119.923 181.858 118.979 181.854 118.105C181.849 117.232 180.714 116.401 181.097 115.618C182.229 113.296 181.211 111.713 178.742 110.62C177.844 110.484 176.946 110.344 176.047 110.201C176.518 109.548 177.089 108.974 177.738 108.499C177.464 107.794 176.989 107.185 176.373 106.748C175.656 106.32 174.767 106.351 173.935 106.395C172.077 106.492 170.221 106.589 168.366 106.686C166.993 106.757 165.571 106.84 164.343 107.471C162.811 108.261 161.807 109.8 161.076 111.366C159.439 114.886 159.698 117.717 160.262 121.559Z" fill="#2F2E41"/>
<path d="M118.042 308.864L217.858 309C217.997 309 218.13 308.945 218.228 308.846C218.327 308.748 218.382 308.614 218.382 308.475C218.382 308.336 218.327 308.202 218.228 308.103C218.13 308.005 217.997 307.95 217.858 307.95L118.042 307.814C117.903 307.814 117.769 307.869 117.671 307.968C117.573 308.066 117.518 308.2 117.518 308.339C117.518 308.479 117.573 308.612 117.671 308.711C117.769 308.809 117.903 308.864 118.042 308.864Z" fill="#CACACA"/>
<path d="M81.9405 263.085C82.1245 261.818 80.7999 260.575 78.9819 260.31C77.1639 260.045 75.5409 260.858 75.3569 262.125C75.1729 263.392 76.4975 264.634 78.3155 264.899C80.1335 265.164 81.7565 264.352 81.9405 263.085Z" fill="#E6E6E6"/>
<path d="M103.586 260.968C103.77 259.701 102.445 258.459 100.627 258.194C98.8093 257.929 97.1864 258.741 97.0024 260.009C96.8184 261.276 98.143 262.518 99.961 262.783C101.779 263.048 103.402 262.236 103.586 260.968Z" fill="#3F3D56"/>
<path d="M76.0135 245.526C76.1975 244.259 74.8729 243.017 73.0548 242.752C71.2368 242.487 69.6139 243.299 69.4299 244.567C69.2458 245.834 70.5705 247.076 72.3885 247.341C74.2065 247.606 75.8294 246.794 76.0135 245.526Z" fill="#FF6584"/>
<path d="M66.6078 238.334C66.6166 237.171 65.9689 236.223 65.1612 236.217C64.3536 236.211 63.6917 237.149 63.6829 238.312C63.6741 239.475 64.3218 240.423 65.1294 240.43C65.9371 240.436 66.599 239.498 66.6078 238.334Z" fill="#E6E6E6"/>
<path d="M63.4183 224.938C63.4271 223.775 62.7795 222.827 61.9718 222.821C61.1641 222.815 60.5022 223.753 60.4934 224.916C60.4847 226.079 61.1323 227.027 61.94 227.033C62.7477 227.04 63.4095 226.101 63.4183 224.938Z" fill="#3F3D56"/>
<path d="M88.2215 248.514C88.2303 247.351 87.5827 246.403 86.775 246.397C85.9673 246.391 85.3054 247.329 85.2967 248.492C85.2879 249.656 85.9355 250.604 86.7432 250.61C87.5509 250.616 88.2128 249.678 88.2215 248.514Z" fill="#E6E6E6"/>
<path d="M77.7616 253.747C77.7704 252.584 77.1227 251.636 76.315 251.63C75.5073 251.624 74.8455 252.562 74.8367 253.725C74.8279 254.889 75.4755 255.837 76.2832 255.843C77.0909 255.849 77.7528 254.911 77.7616 253.747Z" fill="#FF6584"/>
<path d="M92.3224 263.419C92.3312 262.256 91.6835 261.308 90.8758 261.302C90.0682 261.295 89.4063 262.234 89.3975 263.397C89.3887 264.56 90.0364 265.508 90.844 265.514C91.6517 265.521 92.3136 264.582 92.3224 263.419Z" fill="#3F3D56"/>
<path d="M248.337 195.159C248.521 193.892 247.197 192.65 245.379 192.385C243.561 192.12 241.938 192.932 241.754 194.199C241.57 195.467 242.894 196.709 244.712 196.974C246.53 197.239 248.153 196.426 248.337 195.159Z" fill="#E6E6E6"/>
<path d="M269.983 193.043C270.167 191.776 268.842 190.534 267.024 190.269C265.206 190.004 263.583 190.816 263.399 192.083C263.215 193.35 264.54 194.592 266.358 194.858C268.176 195.123 269.799 194.31 269.983 193.043Z" fill="#3F3D56"/>
<path d="M242.41 177.601C242.594 176.334 241.269 175.092 239.451 174.827C237.633 174.561 236.01 175.374 235.826 176.641C235.642 177.908 236.967 179.15 238.785 179.416C240.603 179.681 242.226 178.868 242.41 177.601Z" fill="#FF6584"/>
<path d="M233.005 170.409C233.014 169.245 232.366 168.297 231.558 168.291C230.751 168.285 230.089 169.223 230.08 170.387C230.071 171.55 230.719 172.498 231.526 172.504C232.334 172.51 232.996 171.572 233.005 170.409Z" fill="#E6E6E6"/>
<path d="M229.815 157.013C229.824 155.849 229.176 154.901 228.369 154.895C227.561 154.889 226.899 155.827 226.89 156.99C226.882 158.154 227.529 159.102 228.337 159.108C229.145 159.114 229.807 158.176 229.815 157.013Z" fill="#3F3D56"/>
<path d="M254.619 180.589C254.627 179.426 253.98 178.477 253.172 178.471C252.364 178.465 251.702 179.403 251.694 180.567C251.685 181.73 252.332 182.678 253.14 182.684C253.948 182.69 254.61 181.752 254.619 180.589Z" fill="#E6E6E6"/>
<path d="M244.159 185.822C244.167 184.658 243.52 183.71 242.712 183.704C241.904 183.698 241.242 184.636 241.234 185.8C241.225 186.963 241.873 187.911 242.68 187.917C243.488 187.923 244.15 186.985 244.159 185.822Z" fill="#FF6584"/>
<path d="M258.719 195.494C258.728 194.33 258.081 193.382 257.273 193.376C256.465 193.37 255.803 194.308 255.794 195.471C255.786 196.635 256.433 197.583 257.241 197.589C258.049 197.595 258.711 196.657 258.719 195.494Z" fill="#3F3D56"/>
<path d="M167.78 69.4529C167.964 68.1857 166.64 66.9436 164.822 66.6785C163.004 66.4135 161.381 67.2259 161.197 68.4931C161.013 69.7603 162.337 71.0025 164.155 71.2675C165.973 71.5325 167.596 70.7201 167.78 69.4529Z" fill="white"/>
<path d="M189.426 67.3366C189.61 66.0694 188.285 64.8273 186.467 64.5622C184.649 64.2972 183.026 65.1096 182.842 66.3768C182.658 67.644 183.983 68.8861 185.801 69.1512C187.619 69.4162 189.242 68.6038 189.426 67.3366Z" fill="#3F3D56"/>
<path d="M161.853 51.8945C162.037 50.6273 160.712 49.3852 158.894 49.1201C157.076 48.8551 155.453 49.6675 155.269 50.9347C155.085 52.2019 156.41 53.4441 158.228 53.7091C160.046 53.9742 161.669 53.1617 161.853 51.8945Z" fill="#FF6584"/>
<path d="M152.448 44.7023C152.456 43.539 151.809 42.591 151.001 42.5848C150.193 42.5787 149.532 43.5168 149.523 44.6802C149.514 45.8435 150.162 46.7916 150.969 46.7977C151.777 46.8038 152.439 45.8657 152.448 44.7023Z" fill="#E6E6E6"/>
<path d="M149.258 31.3062C149.267 30.1428 148.619 29.1948 147.811 29.1887C147.004 29.1826 146.342 30.1207 146.333 31.284C146.324 32.4474 146.972 33.3954 147.78 33.4015C148.587 33.4077 149.249 32.4695 149.258 31.3062Z" fill="#3F3D56"/>
<path d="M174.061 54.8825C174.07 53.7191 173.423 52.7711 172.615 52.765C171.807 52.7589 171.145 53.697 171.137 54.8603C171.128 56.0237 171.775 56.9717 172.583 56.9779C173.391 56.984 174.053 56.0458 174.061 54.8825Z" fill="#E6E6E6"/>
<path d="M163.601 60.1154C163.61 58.952 162.962 58.004 162.155 57.9979C161.347 57.9918 160.685 58.9299 160.676 60.0932C160.668 61.2566 161.315 62.2046 162.123 62.2107C162.931 62.2169 163.592 61.2787 163.601 60.1154Z" fill="#FF6584"/>
<path d="M178.162 69.7872C178.171 68.6238 177.523 67.6758 176.715 67.6697C175.908 67.6636 175.246 68.6017 175.237 69.765C175.228 70.9284 175.876 71.8764 176.684 71.8825C177.491 71.8886 178.153 70.9505 178.162 69.7872Z" fill="#3F3D56"/>
</g>
<defs>
<clipPath id="clip0_96_87">
<rect width="270" height="309" fill="white"/>
</clipPath>
</defs>
</svg>
